<?xml version="1.0" encoding="utf-8"?>
<!-- Generator: Adobe Illustrator 18.0.0, SVG Export Plug-In . SVG Version: 6.00 Build 0)  -->
<!DOCTYPE svg PUBLIC "-//W3C//DTD SVG 1.1//EN" "http://www.w3.org/Graphics/SVG/1.1/DTD/svg11.dtd">
<svg version="1.1" id="Layer_1" xmlns="http://www.w3.org/2000/svg" xmlns:xlink="http://www.w3.org/1999/xlink" x="0px" y="0px"
	 viewBox="0 0 60 60" enable-background="new 0 0 60 60" xml:space="preserve">
<polygon fill="#009944" points="50,0 10,0 10,10 0,10 0,50 10,50 10,60 50,60 50,50 60,50 60,10 50,10 "/>
<polygon points="25,40 25,45 35,45 35,50 45,50 45,10 35,10 35,15 25,15 25,20 15,20 15,40 "/>
<rect x="5.5" y="29.6" transform="matrix(0.7213 -0.6926 0.6926 0.7213 -12.4177 29.1402)" fill="#E60012" width="49" height="0.8"/>
</svg>
