<?xml version="1.0" encoding="utf-8"?>
<!-- Generator: Adobe Illustrator 18.0.0, SVG Export Plug-In . SVG Version: 6.00 Build 0)  -->
<!DOCTYPE svg PUBLIC "-//W3C//DTD SVG 1.1//EN" "http://www.w3.org/Graphics/SVG/1.1/DTD/svg11.dtd">
<svg version="1.1" id="Layer_1" xmlns="http://www.w3.org/2000/svg" xmlns:xlink="http://www.w3.org/1999/xlink" x="0px" y="0px"
	 viewBox="0 0 65 65" enable-background="new 0 0 65 65" xml:space="preserve">
<polygon fill="#009944" points="55,0 10,0 10,10 0,10 0,55 10,55 10,65 55,65 55,55 65,55 65,10 55,10 "/>
<polygon points="27.5,42.5 27.5,47.5 37.5,47.5 37.5,52.5 47.5,52.5 47.5,12.5 37.5,12.5 37.5,17.5 27.5,17.5 27.5,22.5 17.5,22.5 
	17.5,42.5 "/>
<rect x="10.9" y="32.1" transform="matrix(0.7213 -0.6926 0.6926 0.7213 -12.6297 33.6133)" fill="#E60012" width="49" height="0.8"/>
</svg>
