<?xml version="1.0" encoding="utf-8"?>
<!-- Generator: Adobe Illustrator 18.0.0, SVG Export Plug-In . SVG Version: 6.00 Build 0)  -->
<!DOCTYPE svg PUBLIC "-//W3C//DTD SVG 1.1//EN" "http://www.w3.org/Graphics/SVG/1.1/DTD/svg11.dtd">
<svg version="1.1" id="Layer_1" xmlns="http://www.w3.org/2000/svg" xmlns:xlink="http://www.w3.org/1999/xlink" x="0px" y="0px"
	 viewBox="0 0 84 84" enable-background="new 0 0 84 84" xml:space="preserve">
<g>
	<path fill="none" d="M54,37h13V27H57V17H47v13H37V17H27v10H17v10h13v10H17v10h10v10h10V54h10v13h10V57h10V47H54V37z M47,47H37V37
		h10V47z"/>
	<path d="M77,37V17H67V7H47V0H37v7H17v10H7v20H0v10h7v20h10v10h20v7h10v-7h20V67h10V47h7V37H77z M67,57H57v10H47V54H37v13H27V57H17
		V47h13V37H17V27h10V17h10v13h10V17h10v10h10v10H54v10h13V57z"/>
	<rect x="37" y="37" fill="#C30D23" width="10" height="10"/>
</g>
</svg>
